REM DIRINDEX 1\2,1\3,1\4
REM DIRNAME cjc151,folder01,folder02,folder03
TITLE ""
FILE "003 003_TOEFL_3900.mp3" MP3
  TRACK 01 AUDIO
    TITLE "2:cjc151_0091"
    INDEX 01 00:00:00
  TRACK 02 AUDIO
    TITLE "0:"
    INDEX 01 00:01:15
  TRACK 03 AUDIO
    TITLE "3:cjc151_0092"
    INDEX 01 00:02:65
  TRACK 04 AUDIO
    TITLE "0:"
    INDEX 01 00:06:45
  TRACK 05 AUDIO
    TITLE "2:cjc151_0093"
    INDEX 01 00:08:23
  TRACK 06 AUDIO
    TITLE "0:"
    INDEX 01 00:09:22
  TRACK 07 AUDIO
    TITLE "3:cjc151_0094"
    INDEX 01 00:11:01
  TRACK 08 AUDIO
    TITLE "0:"
    INDEX 01 00:15:38
  TRACK 09 AUDIO
    TITLE "2:cjc151_0095"
    INDEX 01 00:17:16
  TRACK 10 AUDIO
    TITLE "0:"
    INDEX 01 00:18:29
  TRACK 11 AUDIO
    TITLE "3:cjc151_0096"
    INDEX 01 00:20:04
  TRACK 12 AUDIO
    TITLE "0:"
    INDEX 01 00:24:14
  TRACK 13 AUDIO
    TITLE "2:cjc151_0097"
    INDEX 01 00:25:68
  TRACK 14 AUDIO
    TITLE "0:"
    INDEX 01 00:27:00
  TRACK 15 AUDIO
    TITLE "3:cjc151_0098"
    INDEX 01 00:28:59
  TRACK 16 AUDIO
    TITLE "0:"
    INDEX 01 00:32:54
  TRACK 17 AUDIO
    TITLE "2:cjc151_0099"
    INDEX 01 00:34:34
  TRACK 18 AUDIO
    TITLE "0:"
    INDEX 01 00:35:41
  TRACK 19 AUDIO
    TITLE "3:cjc151_0100"
    INDEX 01 00:37:18
  TRACK 20 AUDIO
    TITLE "0:"
    INDEX 01 00:41:67
  TRACK 21 AUDIO
    TITLE "2:cjc151_0101"
    INDEX 01 00:43:46
  TRACK 22 AUDIO
    TITLE "0:"
    INDEX 01 00:44:60
  TRACK 23 AUDIO
    TITLE "3:cjc151_0102"
    INDEX 01 00:46:39
  TRACK 24 AUDIO
    TITLE "0:"
    INDEX 01 00:50:44
  TRACK 25 AUDIO
    TITLE "2:cjc151_0103"
    INDEX 01 00:52:24
  TRACK 26 AUDIO
    TITLE "0:"
    INDEX 01 00:53:31
  TRACK 27 AUDIO
    TITLE "3:cjc151_0104"
    INDEX 01 00:55:10
  TRACK 28 AUDIO
    TITLE "0:"
    INDEX 01 00:59:00
  TRACK 29 AUDIO
    TITLE "2:cjc151_0105"
    INDEX 01 01:00:53
  TRACK 30 AUDIO
    TITLE "0:"
    INDEX 01 01:01:66
  TRACK 31 AUDIO
    TITLE "3:cjc151_0106"
    INDEX 01 01:03:49
  TRACK 32 AUDIO
    TITLE "0:"
    INDEX 01 01:07:15
  TRACK 33 AUDIO
    TITLE "2:cjc151_0107"
    INDEX 01 01:08:72
  TRACK 34 AUDIO
    TITLE "0:"
    INDEX 01 01:10:02
  TRACK 35 AUDIO
    TITLE "3:cjc151_0108"
    INDEX 01 01:11:56
  TRACK 36 AUDIO
    TITLE "0:"
    INDEX 01 01:15:44
  TRACK 37 AUDIO
    TITLE "2:cjc151_0109"
    INDEX 01 01:17:24
  TRACK 38 AUDIO
    TITLE "0:"
    INDEX 01 01:18:31
  TRACK 39 AUDIO
    TITLE "3:cjc151_0110"
    INDEX 01 01:20:10
  TRACK 40 AUDIO
    TITLE "0:"
    INDEX 01 01:24:45
  TRACK 41 AUDIO
    TITLE "2:cjc151_0111"
    INDEX 01 01:26:29
  TRACK 42 AUDIO
    TITLE "0:"
    INDEX 01 01:27:55
  TRACK 43 AUDIO
    TITLE "3:cjc151_0112"
    INDEX 01 01:29:39
  TRACK 44 AUDIO
    TITLE "0:"
    INDEX 01 01:33:46
  TRACK 45 AUDIO
    TITLE "2:cjc151_0113"
    INDEX 01 01:35:26
  TRACK 46 AUDIO
    TITLE "0:"
    INDEX 01 01:36:39
  TRACK 47 AUDIO
    TITLE "3:cjc151_0114"
    INDEX 01 01:38:16
  TRACK 48 AUDIO
    TITLE "0:"
    INDEX 01 01:42:31
  TRACK 49 AUDIO
    TITLE "2:cjc151_0115"
    INDEX 01 01:44:11
  TRACK 50 AUDIO
    TITLE "0:"
    INDEX 01 01:45:06
  TRACK 51 AUDIO
    TITLE "3:cjc151_0116"
    INDEX 01 01:46:61
  TRACK 52 AUDIO
    TITLE "0:"
    INDEX 01 01:51:32
  TRACK 53 AUDIO
    TITLE "2:cjc151_0117"
    INDEX 01 01:53:12
  TRACK 54 AUDIO
    TITLE "0:"
    INDEX 01 01:54:29
  TRACK 55 AUDIO
    TITLE "3:cjc151_0118"
    INDEX 01 01:56:08
  TRACK 56 AUDIO
    TITLE "0:"
    INDEX 01 01:59:63
  TRACK 57 AUDIO
    TITLE "2:cjc151_0119"
    INDEX 01 02:01:45
  TRACK 58 AUDIO
    TITLE "0:"
    INDEX 01 02:02:42
  TRACK 59 AUDIO
    TITLE "3:cjc151_0120"
    INDEX 01 02:04:23
  TRACK 60 AUDIO
    TITLE "0:"
    INDEX 01 02:08:13
  TRACK 61 AUDIO
    TITLE "2:cjc151_0121"
    INDEX 01 02:09:68
  TRACK 62 AUDIO
    TITLE "0:"
    INDEX 01 02:11:12
  TRACK 63 AUDIO
    TITLE "3:cjc151_0122"
    INDEX 01 02:12:66
  TRACK 64 AUDIO
    TITLE "0:"
    INDEX 01 02:16:56
  TRACK 65 AUDIO
    TITLE "2:cjc151_0123"
    INDEX 01 02:18:33
  TRACK 66 AUDIO
    TITLE "0:"
    INDEX 01 02:19:54
  TRACK 67 AUDIO
    TITLE "3:cjc151_0124"
    INDEX 01 02:21:32
  TRACK 68 AUDIO
    TITLE "0:"
    INDEX 01 02:25:16
  TRACK 69 AUDIO
    TITLE "2:cjc151_0125"
    INDEX 01 02:27:03
  TRACK 70 AUDIO
    TITLE "0:"
    INDEX 01 02:28:30
  TRACK 71 AUDIO
    TITLE "3:cjc151_0126"
    INDEX 01 02:30:09
  TRACK 72 AUDIO
    TITLE "0:"
    INDEX 01 02:34:20
  TRACK 73 AUDIO
    TITLE "2:cjc151_0127"
    INDEX 01 02:36:02
  TRACK 74 AUDIO
    TITLE "0:"
    INDEX 01 02:36:60
  TRACK 75 AUDIO
    TITLE "3:cjc151_0128"
    INDEX 01 02:38:48
  TRACK 76 AUDIO
    TITLE "0:"
    INDEX 01 02:42:36
  TRACK 77 AUDIO
    TITLE "2:cjc151_0129"
    INDEX 01 02:44:15
  TRACK 78 AUDIO
    TITLE "0:"
    INDEX 01 02:45:22
  TRACK 79 AUDIO
    TITLE "3:cjc151_0130"
    INDEX 01 02:47:03
  TRACK 80 AUDIO
    TITLE "0:"
    INDEX 01 02:50:37
  TRACK 81 AUDIO
    TITLE "2:cjc151_0131"
    INDEX 01 02:52:20
  TRACK 82 AUDIO
    TITLE "0:"
    INDEX 01 02:53:24
  TRACK 83 AUDIO
    TITLE "3:cjc151_0132"
    INDEX 01 02:55:03
  TRACK 84 AUDIO
    TITLE "0:"
    INDEX 01 02:58:62
  TRACK 85 AUDIO
    TITLE "2:cjc151_0133"
    INDEX 01 03:00:41
  TRACK 86 AUDIO
    TITLE "0:"
    INDEX 01 03:01:57
  TRACK 87 AUDIO
    TITLE "3:cjc151_0134"
    INDEX 01 03:03:36
  TRACK 88 AUDIO
    TITLE "0:"
    INDEX 01 03:08:25
